#Comment line ignore any data following # character 
#Hierarchical Translation and Rotation (.htr) file 
[Header]	
#Header keywords are followed by a single value 
FileType HTR		#Single word string
DataType HTRS		#Translation followed by rotation and scale data
FileVersion 1		#integer
NumSegments 64		#integer
NumFrames 3		#integer
DataFrameRate 30		#integer, data frame rate in this file
EulerRotationOrder ZYX
CalibrationUnits mm
RotationUnits Degrees
GlobalAxisofGravity Y
BoneLengthAxis Y
ScaleFactor 1.00
[SegmentNames&Hierarchy]
#CHILD	PARENT
Pinger_Root GLOBAL
Pelvis Pinger_Root
L_Hip Pelvis
R_Hip Pelvis
Rear_Leg01 Pelvis
Spine1 Pelvis
L_Leg01 L_Hip
L_Leg02 L_Leg01
L_Leg03 L_Leg02
L_Foot L_Leg03
L_Toe1_01 L_Foot
L_Toe2_01 L_Foot
L_Toe3_01 L_Foot
planeAlignerLeft L_Foot
L_Toe1_02 L_Toe1_01
L_Toe1_03 L_Toe1_02
L_Toe2_02 L_Toe2_01
L_Toe2_03 L_Toe2_02
L_Toe3_02 L_Toe3_01
L_Toe3_03 L_Toe3_02
planeLockWeightLeft planeAlignerLeft
R_Leg01 R_Hip
R_Leg02 R_Leg01
R_Leg03 R_Leg02
R_Foot R_Leg03
planeAlignerRight R_Foot
R_Toe1_01 R_Foot
R_Toe2_01 R_Foot
R_Toe3_01 R_Foot
planeLockWeightRight planeAlignerRight
R_Toe1_02 R_Toe1_01
R_Toe1_03 R_Toe1_02
R_Toe2_02 R_Toe2_01
R_Toe2_03 R_Toe2_02
R_Toe3_02 R_Toe3_01
R_Toe3_03 R_Toe3_02
Rear_Leg02 Rear_Leg01
Rear_Leg03 Rear_Leg02
Rear_Leg04 Rear_Leg03
Rear_Foot Rear_Leg04
planeAlignerCenter Rear_Foot
Rear_Toe1_01 Rear_Foot
Rear_Toe2_01 Rear_Foot
Rear_Toe3_01 Rear_Foot
planeLockWeightCenter planeAlignerCenter
Rear_Toe1_02 Rear_Toe1_01
Rear_Toe1_03 Rear_Toe1_02
Rear_Toe2_02 Rear_Toe2_01
Rear_Toe2_03 Rear_Toe2_02
Rear_Toe3_02 Rear_Toe3_01
Rear_Toe3_03 Rear_Toe3_02
Back_Bone Spine1
Head Spine1
Motor_Bone Back_Bone
Ping_Mechanism Back_Bone
BN_LookIK Head
bottomMouth Head
L_Mouth01 Head
L_mouthFront Head
mouthGun Head
R_Mouth01 Head
R_mouthFront Head
TopMouth Head
weapon_bone Head
[BasePosition]
#SegmentName Tx, Ty, Tz, Rx, Ry, Rz, BoneLength
Pinger_Root 0.000000 0.000000 0.000000 -90.000000 0.000000 0.000000 10.000000 
Pelvis 0.000000 0.000000 0.000000 0.000000 0.000000 0.000000 10.000000 
L_Hip 0.000000 0.000000 0.000000 0.000000 0.000000 0.000000 10.000000 
R_Hip 0.000000 0.000000 0.000000 0.000000 0.000000 0.000000 10.000000 
Rear_Leg01 0.000000 0.000000 0.000000 0.000000 0.000000 0.000000 10.000000 
Spine1 0.000000 0.000000 0.000000 0.000000 0.000000 0.000000 10.000000 
L_Leg01 0.000000 0.000000 0.000000 0.000000 0.000000 0.000000 10.000000 
L_Leg02 0.000000 0.000000 0.000000 0.000000 0.000000 0.000000 10.000000 
L_Leg03 0.000000 0.000000 0.000000 0.000000 0.000000 0.000000 10.000000 
L_Foot 0.000000 0.000000 0.000000 0.000000 0.000000 0.000000 10.000000 
L_Toe1_01 0.000000 0.000000 0.000000 0.000000 0.000000 0.000000 10.000000 
L_Toe2_01 0.000000 0.000000 0.000000 0.000000 0.000000 0.000000 10.000000 
L_Toe3_01 0.000000 0.000000 0.000000 0.000000 0.000000 0.000000 10.000000 
planeAlignerLeft 0.000000 0.000000 0.000000 0.000000 0.000000 0.000000 10.000000 
L_Toe1_02 0.000000 0.000000 0.000000 0.000000 0.000000 0.000000 10.000000 
L_Toe1_03 0.000000 0.000000 0.000000 0.000000 0.000000 0.000000 10.000000 
L_Toe2_02 0.000000 0.000000 0.000000 0.000000 0.000000 0.000000 10.000000 
L_Toe2_03 0.000000 0.000000 0.000000 0.000000 0.000000 0.000000 10.000000 
L_Toe3_02 0.000000 0.000000 0.000000 0.000000 0.000000 0.000000 10.000000 
L_Toe3_03 0.000000 0.000000 0.000000 0.000000 0.000000 0.000000 10.000000 
planeLockWeightLeft 0.000000 0.000000 0.000000 0.000000 0.000000 0.000000 10.000000 
R_Leg01 0.000000 0.000000 0.000000 0.000000 0.000000 0.000000 10.000000 
R_Leg02 0.000000 0.000000 0.000000 0.000000 0.000000 0.000000 10.000000 
R_Leg03 0.000000 0.000000 0.000000 0.000000 0.000000 0.000000 10.000000 
R_Foot 0.000000 0.000000 0.000000 0.000000 0.000000 0.000000 10.000000 
planeAlignerRight 0.000000 0.000000 0.000000 0.000000 0.000000 0.000000 10.000000 
R_Toe1_01 0.000000 0.000000 0.000000 0.000000 0.000000 0.000000 10.000000 
R_Toe2_01 0.000000 0.000000 0.000000 0.000000 0.000000 0.000000 10.000000 
R_Toe3_01 0.000000 0.000000 0.000000 0.000000 0.000000 0.000000 10.000000 
planeLockWeightRight 0.000000 0.000000 0.000000 0.000000 0.000000 0.000000 10.000000 
R_Toe1_02 0.000000 0.000000 0.000000 0.000000 0.000000 0.000000 10.000000 
R_Toe1_03 0.000000 0.000000 0.000000 0.000000 0.000000 0.000000 10.000000 
R_Toe2_02 0.000000 0.000000 0.000000 0.000000 0.000000 0.000000 10.000000 
R_Toe2_03 0.000000 0.000000 0.000000 0.000000 0.000000 0.000000 10.000000 
R_Toe3_02 0.000000 0.000000 0.000000 0.000000 0.000000 0.000000 10.000000 
R_Toe3_03 0.000000 0.000000 0.000000 0.000000 0.000000 0.000000 10.000000 
Rear_Leg02 0.000000 0.000000 0.000000 0.000000 0.000000 0.000000 10.000000 
Rear_Leg03 0.000000 0.000000 0.000000 0.000000 0.000000 0.000000 10.000000 
Rear_Leg04 0.000000 0.000000 0.000000 0.000000 0.000000 0.000000 10.000000 
Rear_Foot 0.000000 0.000000 0.000000 0.000000 0.000000 0.000000 10.000000 
planeAlignerCenter 0.000000 0.000000 0.000000 0.000000 0.000000 0.000000 10.000000 
Rear_Toe1_01 0.000000 0.000000 0.000000 0.000000 0.000000 0.000000 10.000000 
Rear_Toe2_01 0.000000 0.000000 0.000000 0.000000 0.000000 0.000000 10.000000 
Rear_Toe3_01 0.000000 0.000000 0.000000 0.000000 0.000000 0.000000 10.000000 
planeLockWeightCenter 0.000000 0.000000 0.000000 0.000000 0.000000 0.000000 10.000000 
Rear_Toe1_02 0.000000 0.000000 0.000000 0.000000 0.000000 0.000000 10.000000 
Rear_Toe1_03 0.000000 0.000000 0.000000 0.000000 0.000000 0.000000 10.000000 
Rear_Toe2_02 0.000000 0.000000 0.000000 0.000000 0.000000 0.000000 10.000000 
Rear_Toe2_03 0.000000 0.000000 0.000000 0.000000 0.000000 0.000000 10.000000 
Rear_Toe3_02 0.000000 0.000000 0.000000 0.000000 0.000000 0.000000 10.000000 
Rear_Toe3_03 0.000000 0.000000 0.000000 0.000000 0.000000 0.000000 10.000000 
Back_Bone 0.000000 0.000000 0.000000 0.000000 0.000000 0.000000 10.000000 
Head 0.000000 0.000000 0.000000 0.000000 0.000000 0.000000 10.000000 
Motor_Bone 0.000000 0.000000 0.000000 0.000000 0.000000 0.000000 10.000000 
Ping_Mechanism 0.000000 0.000000 0.000000 0.000000 0.000000 0.000000 10.000000 
BN_LookIK 0.000000 0.000000 0.000000 0.000000 0.000000 0.000000 10.000000 
bottomMouth 0.000000 0.000000 0.000000 0.000000 0.000000 0.000000 10.000000 
L_Mouth01 0.000000 0.000000 0.000000 0.000000 0.000000 0.000000 10.000000 
L_mouthFront 0.000000 0.000000 0.000000 0.000000 0.000000 0.000000 10.000000 
mouthGun 0.000000 0.000000 0.000000 0.000000 0.000000 0.000000 10.000000 
R_Mouth01 0.000000 0.000000 0.000000 0.000000 0.000000 0.000000 10.000000 
R_mouthFront 0.000000 0.000000 0.000000 0.000000 0.000000 0.000000 10.000000 
TopMouth 0.000000 0.000000 0.000000 0.000000 0.000000 0.000000 10.000000 
weapon_bone 0.000000 0.000000 0.000000 0.000000 0.000000 0.000000 10.000000 
#Beginning of Data. Separated by tabs
#Fr	Tx	Ty	Tz	Rx	Ry	Rz	SF
[Pinger_Root]
52 0.000000 0.000000 0.000000 -0.000075 -0.000000 -0.000020 0.000000
53 0.000000 0.000000 0.000000 -0.000075 -0.000000 -0.000020 0.000000
54 0.000000 0.000000 0.000000 -0.000075 -0.000000 -0.000020 0.000000
[Pelvis]
52 514.758606 1206.913940 4606.944336 -26.548183 -82.994316 24.269543 4790.151855
53 456.790680 1168.729248 4590.386719 -38.406815 -84.745735 35.050720 4758.806152
54 381.622009 1110.416504 4550.176758 -59.641041 -86.110626 55.208946 4699.230469
[L_Hip]
52 5.766392 125.831482 872.656799 160.158646 -45.484882 122.312271 881.701050
53 5.766392 125.831482 872.656799 160.158691 -45.484905 122.312202 881.701050
54 5.766392 125.831482 872.656799 160.158691 -45.484894 122.312187 881.701050
[R_Hip]
52 5.765438 125.836372 -872.654907 46.144146 60.071365 130.578049 881.699829
53 5.765438 125.836372 -872.654907 43.641106 57.285351 128.840988 881.699829
54 5.765438 125.836372 -872.654907 41.653622 54.813107 127.593849 881.699829
[Rear_Leg01]
52 -192.298416 -925.602966 -0.001907 175.945465 -0.107321 -157.288010 945.367432
53 -192.298416 -925.602966 -0.001907 174.272842 -0.989764 -157.519989 945.367432
54 -192.298416 -925.602966 -0.001907 172.583008 -1.554020 -157.842285 945.367432
[Spine1]
52 290.604584 5.007505 0.000477 3.052702 -3.541789 20.485111 290.647736
53 290.604584 5.007505 0.000477 5.045074 -3.052543 20.359636 290.647736
54 290.604584 5.007505 0.000477 6.995228 -1.891645 20.145830 290.647736
[L_Leg01]
52 761.932007 -0.002384 -0.069261 19.172096 -26.531540 4.250009 761.932068
53 761.932007 -0.002384 -0.069261 21.362476 -24.065699 4.353018 761.932068
54 761.932007 -0.002384 -0.069261 24.184639 -19.888977 -4.115572 761.932068
[L_Leg02]
52 1441.140503 -0.000954 -0.000715 0.611618 -0.163436 -131.498154 1441.140503
53 1441.140503 -0.000954 -0.000715 1.424569 -0.389212 -135.333099 1441.140503
54 1441.140503 -0.000954 -0.000715 1.313488 -0.258603 -129.209106 1441.140503
[L_Leg03]
52 1686.963989 -0.000715 -0.000954 0.043640 -0.010400 98.859062 1686.963989
53 1686.963989 -0.000715 -0.000954 0.026253 -0.006524 103.058807 1686.963989
54 1686.963989 -0.000715 -0.000954 0.005208 -0.004388 108.449409 1686.963989
[L_Foot]
52 3041.570068 -30.715107 11.297464 -4.951711 13.375929 58.871662 3041.746094
53 3041.570068 -30.715107 11.297464 -5.057662 13.171975 59.535652 3041.746094
54 3041.570068 -30.715107 11.297464 -3.088022 13.334688 57.754421 3041.746094
[L_Toe1_01]
52 -188.216690 -224.732346 -21.137953 93.732376 -9.539447 -164.747131 293.899567
53 -188.216690 -224.732346 -21.137953 92.495895 -11.005101 -157.641464 293.899567
54 -188.216690 -224.732346 -21.137953 93.920906 -8.704586 -169.800049 293.899567
[L_Toe2_01]
52 200.746536 -219.926590 148.838394 -85.693069 -22.611366 -65.562973 332.896027
53 200.746536 -219.926590 148.838394 -83.140053 -26.286852 -68.703239 332.896027
54 200.746536 -219.926590 148.838394 -84.364777 -28.917385 -64.179199 332.896027
[L_Toe3_01]
52 188.832520 -219.859131 -191.078659 -99.877098 7.473500 -82.630997 347.140900
53 188.832520 -219.859131 -191.078659 -98.996971 5.749697 -82.926987 347.140900
54 188.832520 -219.859131 -191.078659 -99.324120 9.001865 -78.166466 347.140900
[planeAlignerLeft]
52 0.812531 -811.448792 -0.314951 0.000000 -90.000000 -90.001900 811.449280
53 0.812531 -811.448792 -0.314951 0.000000 -90.000000 -90.001900 811.449280
54 0.812531 -811.448792 -0.314951 0.000000 -90.000000 -90.001900 811.449280
[L_Toe1_02]
52 413.761139 0.000477 0.000000 0.001418 -21.716108 0.001418 413.761139
53 413.761139 0.000477 0.000000 0.001386 -25.728634 0.001386 413.761139
54 413.761139 0.000477 0.000000 0.001392 -24.897490 0.001392 413.761139
[L_Toe1_03]
52 464.317322 0.000358 -0.000089 0.022638 84.056534 0.022638 464.317322
53 464.317322 0.000358 -0.000089 0.004578 60.294090 0.004578 464.317322
54 464.317322 0.000358 -0.000089 0.006145 67.980873 0.006145 464.317322
[L_Toe2_02]
52 342.235809 -0.000477 0.000238 -0.002488 -47.993099 -0.002488 342.235809
53 342.235809 -0.000477 0.000238 -0.002395 -61.770256 -0.002395 342.235809
54 342.235809 -0.000477 0.000238 0.001188 -72.242386 0.001188 342.235809
[L_Toe2_03]
52 420.210846 -0.000715 0.000000 0.006843 44.838482 -0.000731 420.210846
53 420.210846 -0.000715 0.000000 -0.000749 63.889248 -0.004339 420.210846
54 420.210846 -0.000715 0.000000 0.026612 84.945030 0.026612 420.210846
[L_Toe3_02]
52 329.270111 0.000954 0.000000 -0.002396 -61.725117 -0.002396 329.270111
53 329.270111 0.000954 0.000000 0.001185 -73.694084 0.001185 329.270111
54 329.270111 0.000954 0.000000 0.001178 -80.221268 0.001178 329.270111
[L_Toe3_03]
52 439.137451 -0.001907 0.000954 -0.000363 59.364479 -0.003988 439.137451
53 439.137451 -0.001907 0.000954 0.015653 81.400681 0.015653 439.137451
54 439.137451 -0.001907 0.000954 -179.995407 79.613464 -179.991898 439.137451
[planeLockWeightLeft]
52 -0.000954 0.000238 -0.000305 -0.011826 -0.004376 0.005620 0.001029
53 -0.000954 0.000238 -0.000305 -0.011826 -0.004376 0.005620 0.001029
54 -0.000954 0.000238 -0.000305 -0.011826 -0.004376 0.005620 0.001029
[R_Leg01]
52 761.455627 -0.001907 -0.000358 114.235901 -9.774294 41.517117 761.455688
53 761.455627 -0.001907 -0.000358 116.233002 -8.143433 41.930988 761.455688
54 761.455627 -0.001907 -0.000358 117.958748 -7.048249 42.330860 761.455688
[R_Leg02]
52 1441.140625 0.000000 -0.000238 -1.359487 -0.179564 -128.392059 1441.140625
53 1441.140625 0.000000 -0.000238 -1.277439 -0.155195 -125.106995 1441.140625
54 1441.140625 0.000000 -0.000238 -1.194135 -0.135570 -121.821945 1441.140625
[R_Leg03]
52 1686.963989 0.000954 0.001431 0.067885 -0.035289 129.173141 1686.963989
53 1686.963989 0.000954 0.001431 0.068003 -0.035062 128.789536 1686.963989
54 1686.963989 0.000954 0.001431 0.067971 -0.035124 128.893677 1686.963989
[R_Foot]
52 3041.560059 -30.531288 -11.204481 -8.145561 -24.791462 71.480980 3041.734131
53 3041.560059 -30.531288 -11.204481 -7.386752 -24.858185 69.437485 3041.734131
54 3041.560059 -30.531288 -11.204481 -6.391509 -24.912794 66.763313 3041.734131
[planeAlignerRight]
52 -0.635147 -812.270569 -0.364304 0.000000 -89.960434 -90.005180 812.270874
53 -0.635147 -812.270569 -0.364304 0.000000 -89.960434 -90.005180 812.270874
54 -0.635147 -812.270569 -0.364304 0.000000 -89.960434 -90.005180 812.270874
[R_Toe1_01]
52 -188.383347 -224.864899 21.052242 77.172348 -2.906316 170.502914 294.101532
53 -188.383347 -224.864899 21.052242 77.143990 -2.862407 170.722076 294.101532
54 -188.383347 -224.864899 21.052242 77.115791 -2.818391 170.941193 294.101532
[R_Toe2_01]
52 200.637817 -220.002121 -148.787384 -84.567146 32.275902 -46.566460 332.857574
53 200.637817 -220.002121 -148.787384 -84.599533 32.227428 -46.646717 332.857574
54 200.637817 -220.002121 -148.787384 -84.631813 32.178909 -46.726894 332.857574
[R_Toe3_01]
52 188.606735 -220.092957 191.126343 -73.602234 -7.392584 -62.886555 347.192566
53 188.606735 -220.092957 191.126343 -73.619759 -7.301445 -63.058758 347.192566
54 188.606735 -220.092957 191.126343 -73.637550 -7.210363 -63.230927 347.192566
[planeLockWeightRight]
52 -0.000477 0.000000 0.000000 -0.011823 -0.004379 -0.000027 0.000477
53 -0.000477 0.000000 0.000000 -0.011823 -0.004379 -0.000027 0.000477
54 -0.000477 0.000000 0.000000 -0.011823 -0.004379 -0.000027 0.000477
[R_Toe1_02]
52 413.762085 0.000477 -0.000119 0.001467 -16.219893 0.001467 413.762085
53 413.762085 0.000477 -0.000119 0.001467 -16.214895 0.001467 413.762085
54 413.762085 0.000477 -0.000119 0.001467 -16.209898 0.001467 413.762085
[R_Toe1_03]
52 464.317810 0.000000 0.001088 -179.996552 77.333214 -179.993027 464.317810
53 464.317810 0.000000 0.001088 -179.996552 77.317413 -179.993042 464.317810
54 464.317810 0.000000 0.001088 -179.996567 77.301529 -179.993042 464.317810
[R_Toe2_02]
52 342.234741 -0.000954 0.000238 0.001240 -52.489464 0.001240 342.234741
53 342.234741 -0.000954 0.000238 0.001241 -52.026482 0.001241 342.234741
54 342.234741 -0.000954 0.000238 0.001243 -51.563534 0.001243 342.234741
[R_Toe2_03]
52 420.210846 0.000715 -0.000268 -0.003547 50.145905 0.000173 420.210846
53 420.210846 0.000715 -0.000268 -0.003525 49.529133 0.000202 420.210846
54 420.210846 0.000715 -0.000268 -0.003505 48.912487 0.000229 420.210846
[R_Toe3_02]
52 329.270355 -0.000477 -0.000954 0.001191 -70.403999 0.001191 329.270355
53 329.270355 -0.000477 -0.000954 0.001191 -70.138329 0.001191 329.270355
54 329.270355 -0.000477 -0.000954 0.001192 -69.872650 0.001192 329.270355
[R_Toe3_03]
52 439.137939 0.000238 0.001431 0.008587 74.287949 0.008587 439.137939
53 439.137939 0.000238 0.001431 0.008300 73.740250 0.008300 439.137939
54 439.137939 0.000238 0.001431 0.008030 73.192627 0.008030 439.137939
[Rear_Leg02]
52 1162.777710 -0.029802 0.005960 1.040793 4.271227 -100.030556 1162.777710
53 1162.777710 -0.029802 0.005960 0.348289 2.319759 -106.373009 1162.777710
54 1162.777710 -0.029802 0.005960 0.097655 0.558344 -112.098778 1162.777710
[Rear_Leg03]
52 607.192505 -0.013351 -0.073195 0.006628 -0.001566 54.808311 607.192505
53 607.192505 -0.013351 -0.073195 0.006588 -0.001726 57.572273 607.192505
54 607.192505 -0.013351 -0.073195 0.006550 -0.001863 59.967571 607.192505
[Rear_Leg04]
52 995.874512 -0.020504 -0.011921 -0.036079 -0.016378 41.169056 995.874573
53 995.874512 -0.020504 -0.011921 -0.036715 -0.014898 45.828514 995.874573
54 995.874512 -0.020504 -0.011921 -0.039330 -0.018018 50.045002 995.874573
[Rear_Foot]
52 3096.176270 -0.067472 -0.041425 136.015854 84.941780 -26.760788 3096.176270
53 3096.176270 -0.067472 -0.041425 162.088623 84.003082 -2.047129 3096.176270
54 3096.176270 -0.067472 -0.041425 176.483337 83.708763 11.233006 3096.176270
[planeAlignerCenter]
52 0.350077 0.966311 -838.790894 0.000009 0.000003 -179.999985 838.791565
53 0.350077 0.966311 -838.790894 0.000009 0.000003 -179.999985 838.791565
54 0.350077 0.966311 -838.790894 0.000009 0.000003 -179.999985 838.791565
[Rear_Toe1_01]
52 0.653352 83.966492 -371.173737 2.658937 34.581322 91.661057 380.553192
53 0.653352 83.966492 -371.173737 0.962490 39.693932 90.805359 380.553192
54 0.653352 83.966492 -371.173737 0.289765 41.910309 90.407761 380.553192
[Rear_Toe2_01]
52 178.200760 -294.826019 -362.060547 -10.142708 30.014505 -68.824219 499.765686
53 178.200760 -294.826019 -362.060547 -8.082034 33.039879 -67.096855 499.765686
54 178.200760 -294.826019 -362.060547 -7.196299 34.406212 -66.271324 499.765686
[Rear_Toe3_01]
52 -153.359680 -308.780914 -362.060852 1.668765 26.850611 -111.905045 499.952881
53 -153.359680 -308.780914 -362.060852 2.906757 31.530865 -112.302399 499.952881
54 -153.359680 -308.780914 -362.060852 3.289404 33.517937 -112.540962 499.952881
[planeLockWeightCenter]
52 -0.000062 0.000238 0.000000 -0.011814 -0.004373 -0.000015 0.000246
53 -0.000062 0.000238 0.000000 -0.011814 -0.004373 -0.000015 0.000246
54 -0.000062 0.000238 0.000000 -0.011814 -0.004373 -0.000015 0.000246
[Rear_Toe1_02]
52 379.707825 0.194073 0.000477 0.001332 -33.598927 0.001332 379.707855
53 379.707825 0.194073 0.000477 -0.000336 -32.953743 0.006987 379.707855
54 379.707825 0.194073 0.000477 -0.000242 -31.681934 0.006934 379.707855
[Rear_Toe1_03]
52 500.129700 0.165701 0.000119 0.009496 75.802544 0.009496 500.129761
53 500.129700 0.165701 0.000119 -0.004063 60.465508 -0.000447 500.129761
54 500.129700 0.165701 0.000119 -0.000102 51.913788 0.007296 500.129761
[Rear_Toe2_02]
52 340.494507 0.000238 -0.000954 0.001207 -63.164455 0.001207 340.494507
53 340.494507 0.000238 -0.000954 0.001196 -68.018707 0.001196 340.494507
54 340.494507 0.000238 -0.000954 0.001192 -69.854477 0.001192 340.494507
[Rear_Toe2_03]
52 433.103577 0.000000 0.000238 0.004567 60.218815 0.004567 433.103546
53 433.103577 0.000000 0.000238 0.005903 67.064766 0.005903 433.103546
54 433.103577 0.000000 0.000238 0.006696 69.810219 0.006696 433.103546
[Rear_Toe3_02]
52 340.494141 -0.000358 -0.000477 -0.002404 -60.249283 -0.002404 340.494171
53 340.494141 -0.000358 -0.000477 0.007611 -65.378059 -0.008788 340.494171
54 340.494141 -0.000358 -0.000477 0.008288 -67.274651 -0.009460 340.494171
[Rear_Toe3_03]
52 433.103577 0.001431 -0.000238 -0.000164 56.435287 -0.003817 433.103546
53 433.103577 0.001431 -0.000238 -0.000691 63.284489 -0.004285 433.103546
54 433.103577 0.001431 -0.000238 -0.000972 65.958908 -0.004547 433.103546
[Back_Bone]
52 1312.175781 -701.934692 0.000954 -5.765079 0.790718 -87.074280 1488.125488
53 1312.175781 -701.934692 0.000954 -4.424933 0.192143 -86.901016 1488.125488
54 1312.175781 -701.934692 0.000954 -3.084377 -0.059281 -86.700493 1488.125488
[Head]
52 1406.159424 809.709290 0.001431 0.065419 -1.471617 9.933867 1622.625488
53 1406.159424 809.709290 0.001431 0.033604 -1.474009 9.379069 1622.625488
54 1406.159424 809.709290 0.001431 0.001816 -1.476708 8.824317 1622.625488
[Motor_Bone]
52 1158.364380 -417.834747 0.000477 -0.095096 8.307204 -105.102394 1231.419434
53 1158.364380 -417.834747 0.000477 -0.096770 7.144502 -105.672409 1231.419434
54 1158.364380 -417.834747 0.000477 -0.097675 5.880054 -105.912163 1231.419434
[Ping_Mechanism]
52 1226.913574 -442.581879 32.430046 0.000103 -0.000053 82.120995 1304.702026
53 1228.123779 -441.619568 22.213486 0.000103 -0.000053 82.120995 1305.300415
54 1229.334106 -440.657379 11.997039 0.000103 -0.000053 82.120995 1305.980591
[BN_LookIK]
52 193.241119 1380.371704 -0.002861 0.000000 89.965736 -31.038179 1393.832153
53 193.241119 1380.371704 -0.002861 0.000000 89.965736 -31.038179 1393.832153
54 193.241119 1380.371704 -0.002861 0.000000 89.965736 -31.038179 1393.832153
[bottomMouth]
52 -435.092926 615.759399 -0.000954 -0.000022 0.000016 73.527184 753.966492
53 -435.092926 615.759399 -0.000954 -0.000022 0.000016 73.527184 753.966492
54 -435.092926 615.759399 -0.000954 -0.000022 0.000016 73.527184 753.966492
[L_Mouth01]
52 554.440979 7.658243 838.222046 150.204178 23.759130 109.605339 1005.027161
53 554.440979 7.658243 838.222046 150.204178 23.759130 109.605339 1005.027161
54 554.440979 7.658243 838.222046 150.204178 23.759130 109.605339 1005.027161
[L_mouthFront]
52 551.629089 934.514771 339.150421 0.000081 2.804060 79.119301 1136.941284
53 551.629089 934.514771 339.150421 0.000081 2.804060 79.119301 1136.941284
54 551.629089 934.514771 339.150421 0.000081 2.804060 79.119301 1136.941284
[mouthGun]
52 55.332661 1627.420898 0.000000 0.000023 0.000009 -11.038128 1628.361328
53 55.332661 1627.420898 0.000000 0.000023 0.000009 -11.038128 1628.361328
54 55.332661 1627.420898 0.000000 0.000023 0.000009 -11.038128 1628.361328
[R_Mouth01]
52 554.442383 7.659197 -838.223938 29.795891 -23.759109 109.605331 1005.029541
53 554.442383 7.659197 -838.223938 29.795891 -23.759109 109.605331 1005.029541
54 554.442383 7.659197 -838.223938 29.795891 -23.759109 109.605331 1005.029541
[R_mouthFront]
52 551.629089 934.514282 -339.151367 0.000029 -2.803930 79.119133 1136.941162
53 551.629089 934.514282 -339.151367 0.000029 -2.803930 79.119133 1136.941162
54 551.629089 934.514282 -339.151367 0.000029 -2.803930 79.119133 1136.941162
[TopMouth]
52 461.269867 -56.106091 -0.008583 -0.000059 -0.000268 92.025169 464.669525
53 461.269867 -56.106091 -0.008583 -0.000059 -0.000268 92.025169 464.669525
54 461.269867 -56.106091 -0.008583 -0.000059 -0.000268 92.025169 464.669525
[weapon_bone]
52 -987.239868 1448.372803 0.001431 0.000000 89.965736 -31.038221 1752.833740
53 -987.239868 1448.372803 0.001431 0.000000 89.965736 -31.038221 1752.833740
54 -987.239868 1448.372803 0.001431 0.000000 89.965736 -31.038221 1752.833740
